HIERARCHY
ROOT hip
{
  OFFSET 0 0 0
  CHANNELS 6 Xposition Yposition Zposition Zrotation Yrotation Xrotation
  JOINT abdomen
  {
    OFFSET 0 20.6881 -0.73152
    CHANNELS 3 Zrotation Xrotation Yrotation
    JOINT chest
    {
      OFFSET 0 11.7043 -0.48768
      CHANNELS 3 Zrotation Xrotation Yrotation
      JOINT neck
      {
        OFFSET 0 22.1894 -2.19456
        CHANNELS 3 Zrotation Xrotation Yrotation
        JOINT head
        {
          OFFSET -0.24384 7.07133 1.2192
          CHANNELS 3 Zrotation Xrotation Yrotation
          JOINT leftEye
          {
            OFFSET 4.14528 8.04674 8.04672
            CHANNELS 3 Zrotation Xrotation Yrotation
            End Site
            {
              OFFSET 1 0 0
            }
          }
          JOINT rightEye
          {
            OFFSET -3.6576 8.04674 8.04672
            CHANNELS 3 Zrotation Xrotation Yrotation
            End Site
            {
              OFFSET 1 0 0
            }
          }
        }
      }
      JOINT rCollar
      {
        OFFSET -2.68224 19.2634 -4.8768
        CHANNELS 3 Zrotation Xrotation Yrotation
        JOINT rShldr
        {
          OFFSET -8.77824 -1.95073 1.46304
          CHANNELS 3 Zrotation Xrotation Yrotation
          JOINT rForeArm
          {
            OFFSET -28.1742 -1.7115 0.48768
            CHANNELS 3 Zrotation Xrotation Yrotation
            JOINT rHand
            {
              OFFSET -22.5879 0.773209 7.07136
              CHANNELS 3 Zrotation Xrotation Yrotation
              JOINT rThumb1
              {
                OFFSET -1.2192 -0.487915 3.41376
                CHANNELS 3 Zrotation Xrotation Yrotation
                JOINT rThumb2
                {
                  OFFSET -3.37035 -0.52449 3.41376
                  CHANNELS 3 Zrotation Xrotation Yrotation
                  End Site
                  {
                    OFFSET -1.78271 -1.18214 1.43049
                  }
                }
              }
              JOINT rIndex1
              {
                OFFSET -7.75947 0.938293 5.60832
                CHANNELS 3 Zrotation Xrotation Yrotation
                JOINT rIndex2
                {
                  OFFSET -2.54057 -0.884171 1.56538
                  CHANNELS 3 Zrotation Xrotation Yrotation
                  End Site
                  {
                    OFFSET -1.62519 -0.234802 1.16502
                  }
                }
              }
              JOINT rMid1
              {
                OFFSET -8.24714 1.18213 3.41376
                CHANNELS 3 Zrotation Xrotation Yrotation
                JOINT rMid2
                {
                  OFFSET -3.10165 -0.590103 1.0647
                  CHANNELS 3 Zrotation Xrotation Yrotation
                  End Site
                  {
                    OFFSET -2.48547 -0.328903 0.83742
                  }
                }
              }
              JOINT rRing1
              {
                OFFSET -8.82822 0.546677 1.51678
                CHANNELS 3 Zrotation Xrotation Yrotation
                JOINT rRing2
                {
                  OFFSET -2.60934 -0.819778 -0.0198488
                  CHANNELS 3 Zrotation Xrotation Yrotation
                  End Site
                  {
                    OFFSET -2.33842 -0.294052 0.168128
                  }
                }
              }
              JOINT rPinky1
              {
                OFFSET -8.27202 -0.0477905 -0.4584
                CHANNELS 3 Zrotation Xrotation Yrotation
                JOINT rPinky2
                {
                  OFFSET -1.82734 -0.647385 -0.700984
                  CHANNELS 3 Zrotation Xrotation Yrotation
                  End Site
                  {
                    OFFSET -1.69225 -0.51767 -0.607171
                  }
                }
              }
            }
          }
        }
      }
      JOINT lCollar
      {
        OFFSET 2.68224 19.2634 -4.8768
        CHANNELS 3 Zrotation Xrotation Yrotation
        JOINT lShldr
        {
          OFFSET 8.77824 -1.95073 1.46304
          CHANNELS 3 Zrotation Xrotation Yrotation
          JOINT lForeArm
          {
            OFFSET 28.1742 -1.7115 0.48768
            CHANNELS 3 Zrotation Xrotation Yrotation
            JOINT lHand
            {
              OFFSET 22.5879 0.773209 7.07136
              CHANNELS 3 Zrotation Xrotation Yrotation
              JOINT lThumb1
              {
                OFFSET 1.2192 -0.487915 3.41376
                CHANNELS 3 Zrotation Xrotation Yrotation
                JOINT lThumb2
                {
                  OFFSET 3.37035 -0.52449 3.41376
                  CHANNELS 3 Zrotation Xrotation Yrotation
                  End Site
                  {
                    OFFSET 1.78271 -1.18214 1.43049
                  }
                }
              }
              JOINT lIndex1
              {
                OFFSET 7.75947 0.938293 5.60832
                CHANNELS 3 Zrotation Xrotation Yrotation
                JOINT lIndex2
                {
                  OFFSET 2.54057 -0.884171 1.56538
                  CHANNELS 3 Zrotation Xrotation Yrotation
                  End Site
                  {
                    OFFSET 1.62519 -0.234802 1.16502
                  }
                }
              }
              JOINT lMid1
              {
                OFFSET 8.24714 1.18213 3.41376
                CHANNELS 3 Zrotation Xrotation Yrotation
                JOINT lMid2
                {
                  OFFSET 3.10165 -0.590103 1.0647
                  CHANNELS 3 Zrotation Xrotation Yrotation
                  End Site
                  {
                    OFFSET 2.48547 -0.328903 0.83742
                  }
                }
              }
              JOINT lRing1
              {
                OFFSET 8.82822 0.546677 1.51678
                CHANNELS 3 Zrotation Xrotation Yrotation
                JOINT lRing2
                {
                  OFFSET 2.60934 -0.819778 -0.0198488
                  CHANNELS 3 Zrotation Xrotation Yrotation
                  End Site
                  {
                    OFFSET 2.33842 -0.294052 0.168128
                  }
                }
              }
              JOINT lPinky1
              {
                OFFSET 8.27202 -0.0477905 -0.4584
                CHANNELS 3 Zrotation Xrotation Yrotation
                JOINT lPinky2
                {
                  OFFSET 1.82734 -0.647385 -0.700984
                  CHANNELS 3 Zrotation Xrotation Yrotation
                  End Site
                  {
                    OFFSET 1.69225 -0.51767 -0.607171
                  }
                }
              }
            }
          }
        }
      }
    }
  }
  JOINT rButtock
  {
    OFFSET -8.77824 4.35084 1.2192
    CHANNELS 3 Zrotation Xrotation Yrotation
    JOINT rThigh
    {
      OFFSET 0 -1.70687 -2.19456
      CHANNELS 3 Zrotation Xrotation Yrotation
      JOINT rShin
      {
        OFFSET 0 -36.8199 0.73152
        CHANNELS 3 Zrotation Xrotation Yrotation
        JOINT rFoot
        {
          OFFSET 0.73152 -45.1104 -5.12064
          CHANNELS 3 Zrotation Xrotation Yrotation
          End Site
          {
            OFFSET -1.1221 -3.69964 12.103
          }
        }
      }
    }
  }
  JOINT lButtock
  {
    OFFSET 8.77824 4.35084 1.2192
    CHANNELS 3 Zrotation Xrotation Yrotation
    JOINT lThigh
    {
      OFFSET 0 -1.70687 -2.19456
      CHANNELS 3 Zrotation Xrotation Yrotation
      JOINT lShin
      {
        OFFSET 0 -36.8199 0.73152
        CHANNELS 3 Zrotation Xrotation Yrotation
        JOINT lFoot
        {
          OFFSET -0.73152 -45.1104 -5.12064
          CHANNELS 3 Zrotation Xrotation Yrotation
          End Site
          {
            OFFSET 1.1221 -3.69964 12.103
          }
        }
      }
    }
  }
}
MOTION
Frames:	7
Frame Time:	0.03333
0.0 0.0 0.0 0.0 0.0 0.0 0.0 0.0 0.0 0.0 0.0 0.0 0.0 0.0 0.0 0.0 0.0 0.0 0.0 0.0 0.0 0.0 0.0 0.0 0.0 0.0 0.0 0.0 0.0 0.0 0.0 0.0 0.0 0.0 0.0 0.0 0.0 0.0 0.0 0.0 0.0 0.0 0.0 0.0 0.0 0.0 0.0 0.0 0.0 0.0 0.0 0.0 0.0 0.0 0.0 0.0 0.0 0.0 0.0 0.0 0.0 0.0 0.0 0.0 0.0 0.0 0.0 0.0 0.0 0.0 0.0 0.0 0.0 0.0 0.0 0.0 0.0 0.0 0.0 0.0 0.0 0.0 0.0 0.0 0.0 0.0 0.0 0.0 0.0 0.0 0.0 0.0 0.0 0.0 0.0 0.0 0.0 0.0 0.0 0.0 0.0 0.0 0.0 0.0 0.0 0.0 0.0 0.0 0.0 0.0 0.0 0.0 0.0 0.0 0.0 0.0 0.0 0.0 0.0 0.0 0.0 0.0 0.0 0.0 0.0 0.0 0.0 0.0 0.0 0.0 0.0 0.0
-0.0339 61.6393 0.24320000000000003 179.874736 85.62541 179.278485 0.208779 -1.635625 -164.254763 -2.186947 -13.075066 169.537899 7.891972 -18.014188 56.671127 26.99333 -26.387989 34.837878 -156.695796 11.117771 50.530691 -35.107804 -9.589618 29.70231 55.848233 46.661636 22.15721 -158.501111 18.060662 166.150112 -1.183325 -23.475667 151.483803 -22.750205 47.923474 -57.930727 87.996778 -7.003186 53.483058 135.493756 4.483905 -120.481245 -168.257144 15.093609 -156.103622 -20.409375 5.193471 -72.038751 -27.50709 -0.155338 -104.283357 174.845602 -0.891615 161.296067 -72.234424 14.232008 -97.748766 15.395047 3.277471 -7.43818 172.704356 30.786136 -64.463836 -142.145749 12.590169 -133.122536 83.552605 -44.662377 -168.217246 -9.558268 0.496236 -7.208515 -178.512793 -0.223757 17.395469 24.009352 76.571481 25.402611 1.833852 -15.029311 -8.287768 4.845633 -19.05169 4.931991 -154.225924 -42.882745 -101.723197 114.451087 -77.406289 -165.762487 -73.227188 48.276538 108.010171 124.349496 -14.048926 24.186812 -97.786854 -14.561705 77.838546 21.411311 72.767227 -38.364572 -162.137912 21.293774 29.382387 2.794379 -16.811131 15.519313 43.677991 40.692969 121.557866 -3.865863 57.241573 2.009817 -5.239006 -4.007899 -59.799091 73.322133 -7.364443 -95.118788 -27.013828 48.226465 -145.642876 -2.050794 54.714146 -0.0 3.834419 4.456172 145.182052 -51.521366 -52.003382 121.84725
-0.0986 58.2827 0.9490000000000001 -10.439929 -52.501481 9.940436 3.466311 11.589497 163.221522 -2.395662 6.029185 -153.064903 -0.381393 30.379161 170.073765 -11.252469 38.576645 -146.231937 15.729724 3.16805 22.640771 -1.682362 -0.049327 3.358634 -10.997625 24.163797 12.240715 -104.147944 -9.997706 158.248674 107.115992 -35.697421 -113.95752 -50.160815 48.284257 26.294867 -4.562803 9.368593 -3.859609 92.450325 -57.558351 24.279104 -152.908495 -27.413207 132.231944 178.75019 -52.850887 88.660869 -117.214763 42.866704 108.89306 -164.078362 -68.364754 135.175699 -142.418915 48.166465 177.042752 -3.477897 5.190713 -59.422414 -157.090641 4.414433 -154.273053 -116.113063 72.117083 138.016367 151.224098 29.415183 -154.275784 -137.873884 9.379394 170.6743 93.792658 -3.38831 -69.966666 -45.651454 -61.643976 -26.718631 81.420718 45.891605 -37.506294 134.838697 -22.521089 -66.048994 154.499724 -10.197333 -104.141873 -1.029873 5.255408 -40.639321 95.228527 58.874639 -78.386355 81.026143 51.493868 -67.529881 146.189346 -5.841964 -166.159707 72.089075 82.627996 -86.679778 123.66539 20.983284 149.928687 118.214142 33.635896 108.766055 -8.408394 1.457239 11.167496 -12.941307 -25.143279 80.237418 67.866787 -12.264087 -161.392799 -57.292761 -56.995043 25.629995 -161.508161 64.348901 -13.835956 -159.909138 -10.052599 103.462464 85.418963 -15.946004 -2.715928 -66.002715 -82.066939 -172.041397
-0.2929 55.7373 1.1694 -7.955442 -57.751029 9.791211 -0.970616 15.689052 0.223555 0.624977 -15.853626 18.665513 11.246414 35.112418 148.320035 -19.050942 35.930479 -121.357977 16.906129 0.049994 0.336402 -10.370964 -0.689421 7.585781 -150.278115 -41.971188 179.681998 -46.478997 -21.32438 -25.296481 -70.621101 39.946086 -95.661352 169.795397 -44.555626 136.833962 -178.839875 5.146471 91.025748 -35.069314 -18.221278 1.718744 -27.077349 56.273096 13.397323 -175.5702 37.706942 114.812155 -160.231559 18.634512 133.192784 91.65857 -59.427902 66.584498 -17.075341 -6.553017 9.03691 -136.124999 -9.124413 157.484764 -20.216105 -67.463507 -33.911986 -1.588703 -6.859502 39.418718 13.524678 23.166456 -11.950664 100.716403 8.909221 -110.601507 99.216609 7.843766 123.943523 -31.663532 -46.208088 -19.58909 1.562613 4.06507 13.533397 110.400035 -32.779019 -100.071971 96.39512 13.093265 -70.719344 -61.10942 0.360472 12.461414 7.49736 0.932105 12.676127 87.460656 50.816934 -75.055652 16.348416 4.205736 -10.650954 127.867993 -36.244036 158.843527 -58.159455 76.648122 36.273148 32.973456 1.889524 -11.155686 51.796118 40.650648 52.238263 -102.36953 15.587381 -132.836176 -85.26482 17.097094 -5.122137 -177.966399 -30.448265 -77.303468 0.405252 -4.296679 5.39317 61.908504 -61.237359 59.197162 2.005058 83.189643 -91.116755 12.040428 69.818575 65.224763
-0.11069999999999999 54.915000000000006 0.9747 -10.692745 -60.664612 13.898394 0.320709 13.876208 -0.063942 1.069532 -15.827937 17.642398 6.297176 19.91892 29.583342 -14.139034 -20.200273 -4.199015 8.010282 1.690156 23.793057 7.961987 0.664621 9.528139 1.265966 1.664346 -5.60849 -1.048902 -87.582418 -70.98659 72.31264 -49.232754 -90.211533 -117.634634 52.115841 94.58052 48.732424 -42.380781 13.442873 -98.672458 39.360009 80.160281 -9.724309 -5.997397 -9.225432 -142.690824 2.185987 125.045263 9.451761 -27.901116 -16.353281 90.434312 -58.988925 59.762329 -153.72641 12.807533 173.353739 -119.382558 86.698695 102.684403 4.53069 -24.654784 -8.250688 -162.244992 16.840471 -172.848508 151.370485 21.882246 -153.129554 68.06541 -57.254179 23.106354 152.891717 -35.933777 79.991412 1.603374 -3.718814 0.214615 6.75816 19.831951 2.28497 23.740819 27.778759 -39.817033 117.833307 9.831083 -114.205103 -105.773686 -70.435273 -22.990598 -179.716283 -52.684189 -149.599581 -7.471541 -47.956161 -7.884237 81.31988 82.271582 -87.048168 -18.397881 -54.641964 -12.290154 -142.791415 53.894246 122.680639 179.218296 6.438128 155.146847 -2.859325 -5.09255 3.413278 -27.540492 -37.43323 -118.886537 -91.950369 2.458137 34.807203 96.762514 18.718562 12.32187 -15.163694 89.809748 180.0 -149.31454 -3.451894 91.190675 92.050735 -31.967495 -8.226704 -44.89912 46.741355 -41.488105
0.1787 54.2863 0.8923000000000001 -11.273155 -63.388774 13.613529 -0.310515 15.42184 0.070102 0.8445 -15.928702 17.931563 6.220852 15.274761 22.790537 -10.856679 -19.274968 6.237533 -1.273586 -0.29628 26.191097 9.380874 -2.263816 -27.079703 -0.079042 11.100054 -0.584394 -105.667851 -10.334883 166.215393 109.52234 -42.998476 -129.690576 -23.300362 8.262141 10.991347 -80.681364 34.784082 41.267309 9.271112 0.3573 37.639851 -32.783237 42.344688 13.759449 162.700416 -58.505036 98.631446 -54.197113 -82.104495 -83.646374 15.820821 29.152679 11.746211 -16.361682 -1.789678 1.325505 25.012203 -2.138436 -16.606454 -115.309529 -33.645354 -114.141188 -135.648771 4.494404 -163.476393 81.811585 71.948322 -82.089039 83.874627 23.343724 -54.902356 -87.64402 -23.998721 83.318085 163.778963 50.637997 -138.233842 5.846888 17.086868 -0.044806 22.482607 22.796686 -22.090674 147.147276 -22.348149 -122.967828 -153.832748 -49.820203 -78.452248 173.64297 -35.010291 -154.04272 -1.125011 -6.425011 2.511706 85.764115 -55.522577 91.293086 35.475724 -74.74829 88.674014 -6.304193 42.880282 7.387529 119.451013 -67.700702 128.539437 -112.5208 50.232165 -44.681042 122.146667 9.078957 -95.663168 -95.736965 -16.946892 18.818779 118.318587 27.942434 -3.512201 -56.062948 15.81191 -45.685228 130.139657 -11.089963 -99.018392 -106.946477 -55.774744 -102.38244 -29.305966 15.63089 176.899902
-0.0017 53.71169999999999 1.0614999999999999 -11.912082 -65.648662 13.906949 -1.202969 15.799091 0.0 0.58814 -16.136619 23.262662 17.753653 15.218515 79.540607 -23.590738 7.77664 -50.102149 -40.192456 3.41069 -9.304304 -3.422764 1.192466 -38.406639 -145.688089 -49.375023 -172.918823 163.187548 -4.310524 -144.843238 92.213854 33.37949 74.969002 -38.100407 34.805721 25.983985 -94.27395 33.42963 53.551544 -36.537521 11.870398 54.024602 -10.013997 6.062657 -4.797214 169.900241 -54.76272 92.624842 -6.724857 11.056467 1.90691 -1.244184 1.693302 -8.956353 -150.121708 4.621596 177.92513 9.196528 0.055462 -2.687741 -111.24685 -57.857585 -111.568129 -116.257783 62.273722 147.481787 150.201499 21.08252 -154.059091 -139.234192 -9.798809 171.388474 -157.25631 36.315351 -65.694408 -173.87647 -6.673739 -145.452946 -1.193741 8.576428 0.690543 5.501239 0.346617 -0.899077 60.220502 35.728822 -49.013473 65.054488 54.499684 -63.840486 -6.076362 -0.340248 9.51846 175.281889 -9.54589 -128.166508 139.194198 5.157847 174.049473 -64.250628 87.841242 47.965688 -23.400438 55.298465 -7.10628 9.385363 -26.74855 1.156321 -19.104032 3.047713 -4.743576 -2.134822 -45.982853 -2.967328 120.543706 72.096532 143.211414 62.620545 44.925889 46.964977 -0.823285 -3.861593 -12.04483 78.793863 -38.100698 -0.0 -83.510327 21.056322 82.342018 111.966629 -13.057076 -23.684648
